HIERARCHY
ROOT joint_Root
{
	OFFSET 0.0 0.0 0.0
	CHANNELS 6 Xposition Yposition Zposition Zrotation Xrotation Yrotation 
	JOINT Hips
	{
		OFFSET -0.726466 93.3139 -2.00062
		CHANNELS 6 Xposition Yposition Zposition Zrotation Xrotation Yrotation 
		JOINT Spine
		{
			OFFSET 15.7357 0.0 0.0
			CHANNELS 6 Xposition Yposition Zposition Zrotation Xrotation Yrotation 
			JOINT Chest
			{
				OFFSET 8.98455 -0.406207 0.0
				CHANNELS 6 Xposition Yposition Zposition Zrotation Xrotation Yrotation 
				JOINT Neck
				{
					OFFSET 16.3773 0.0 0.0
					CHANNELS 6 Xposition Yposition Zposition Zrotation Xrotation Yrotation 
					JOINT Head
					{
						OFFSET 6.45672 0.0 0.0
						CHANNELS 6 Xposition Yposition Zposition Zrotation Xrotation Yrotation 
						End Site
						{
							OFFSET 0.0 0.0 0.0
						}
					}
				}
				JOINT Shoulder_L
				{
					OFFSET 12.9942 -0.242716 4.98039
					CHANNELS 6 Xposition Yposition Zposition Zrotation Xrotation Yrotation 
					JOINT UpperArm_L
					{
						OFFSET 5.34809 0.0 0.0
						CHANNELS 6 Xposition Yposition Zposition Zrotation Xrotation Yrotation 
						JOINT LowerArm_L
						{
							OFFSET 24.3286 1.87007e-05 0.0
							CHANNELS 6 Xposition Yposition Zposition Zrotation Xrotation Yrotation 
							JOINT Hand_L
							{
								OFFSET 22.2916 0.0 0.0
								CHANNELS 6 Xposition Yposition Zposition Zrotation Xrotation Yrotation 
								End Site
								{
									OFFSET 0.0 0.0 0.0
								}
							}
						}
					}
				}
				JOINT Shoulder_R
				{
					OFFSET 12.9945 -0.242716 -4.98039
					CHANNELS 6 Xposition Yposition Zposition Zrotation Xrotation Yrotation 
					JOINT UpperArm_R
					{
						OFFSET -5.34813 0.0 0.0
						CHANNELS 6 Xposition Yposition Zposition Zrotation Xrotation Yrotation 
						JOINT LowerArm_R
						{
							OFFSET -24.3289 0.000322201 0.0
							CHANNELS 6 Xposition Yposition Zposition Zrotation Xrotation Yrotation 
							JOINT Hand_R
							{
								OFFSET -22.2915 -0.000108084 0.0
								CHANNELS 6 Xposition Yposition Zposition Zrotation Xrotation Yrotation 
								End Site
								{
									OFFSET 0.0 0.0 0.0
								}
							}
						}
					}
				}
			}
		}
		JOINT UpperLeg_L
		{
			OFFSET -2.19248 -6.46944 0.0
			CHANNELS 6 Xposition Yposition Zposition Zrotation Xrotation Yrotation 
			JOINT LowerLeg_L
			{
				OFFSET 39.0811 0.0 -1.23785e-05
				CHANNELS 6 Xposition Yposition Zposition Zrotation Xrotation Yrotation 
				JOINT Foot_L
				{
					OFFSET 40.9854 0.0 -1.26872e-05
					CHANNELS 6 Xposition Yposition Zposition Zrotation Xrotation Yrotation 
					JOINT Toes_L
					{
						OFFSET 11.7543 0.0 0.0
						CHANNELS 6 Xposition Yposition Zposition Zrotation Xrotation Yrotation 
						End Site
						{
							OFFSET 0.0 0.0 0.0
						}
					}
				}
			}
		}
		JOINT UpperLeg_R
		{
			OFFSET -2.19251 6.46944 0.0
			CHANNELS 6 Xposition Yposition Zposition Zrotation Xrotation Yrotation 
			JOINT LowerLeg_R
			{
				OFFSET -39.0811 -0.00228153 -0.0401928
				CHANNELS 6 Xposition Yposition Zposition Zrotation Xrotation Yrotation 
				JOINT Foot_R
				{
					OFFSET -40.9854 0.0 0.0
					CHANNELS 6 Xposition Yposition Zposition Zrotation Xrotation Yrotation 
					JOINT Toes_R
					{
						OFFSET -11.7543 0.0 0.0
						CHANNELS 6 Xposition Yposition Zposition Zrotation Xrotation Yrotation 
						End Site
						{
							OFFSET 0.0 0.0 0.0
						}
					}
				}
			}
		}
	}
}
MOTION
Frames:	5
Frame Time:	0.0333333
0.000000 0.000000 0.000000 0.000000 0.000000 -0.000000 -1.312040 83.292100 414.655000 -81.742300 -4.759060 168.255000 15.735700 0.000005 -0.000001 76.135000 78.004900 -70.253400 8.984550 -0.406207 -0.000000 15.875700 -5.250460 12.515800 16.377300 -0.000001 -0.000001 4.054760 0.798318 -2.358920 6.456720 -0.000001 -0.000000 -6.561370 7.282020 -5.215760 12.994200 -0.242716 4.980390 -87.879000 -5.820450 -69.932200 5.348090 -0.000007 -0.000001 -68.420700 23.986700 -8.686880 24.328600 0.000019 0.000005 -5.340200 -2.158730 -68.034500 22.291600 -0.000001 0.000005 3.377800 5.668270 -17.132100 12.994500 -0.242716 -4.980390 87.524100 4.728970 -62.317000 -5.348130 -0.000001 -0.000004 -48.845100 22.120800 -7.185500 -24.328900 0.000322 -0.000009 -4.773910 -3.075930 -57.271000 -22.291500 -0.000108 -0.000004 6.363200 5.656640 -15.665400 -2.192480 -6.469440 -0.000000 -167.887000 -1.738330 -4.607020 39.081100 -0.000007 -0.000012 -0.001082 0.000165 81.724000 40.985400 -0.000006 -0.000013 1.667350 -1.454320 -35.047500 11.754300 -0.000000 0.000003 -0.006649 -0.076628 -19.696000 -2.192510 6.469440 -0.000001 -164.282000 10.346500 136.648000 -39.081100 -0.002282 -0.040193 -0.412542 0.278500 56.184300 -40.985400 0.000008 0.000006 0.295690 -12.522900 -77.031000 -11.754300 -0.000006 -0.000006 -0.010159 -0.104824 -20.844200
0.000000 0.000000 0.000000 0.000000 0.000000 -0.000000 -0.984737 81.108600 408.198000 -79.633300 -1.149430 169.636000 15.735700 0.000005 -0.000001 84.151400 77.600500 -78.109400 8.984550 -0.406207 -0.000000 17.048000 -1.995900 12.403700 16.377300 -0.000001 -0.000001 2.846900 1.955480 -1.712870 6.456720 -0.000001 -0.000000 -6.091970 5.965380 -6.431890 12.994200 -0.242716 4.980390 -88.194500 -4.499470 -68.108500 5.348090 -0.000007 -0.000001 -68.723000 29.735100 -2.873460 24.328600 0.000019 0.000005 -2.772790 -1.861390 -56.033400 22.291600 -0.000001 0.000005 1.505700 5.671450 -17.637700 12.994500 -0.242716 -4.980390 87.553000 5.370080 -65.459300 -5.348130 -0.000001 -0.000004 -46.009400 20.849200 -19.106400 -24.328900 0.000322 -0.000009 -5.651710 -3.422010 -58.893000 -22.291500 -0.000108 -0.000004 6.992110 5.659600 -16.019200 -2.192480 -6.469440 -0.000000 -168.428000 -4.571010 -17.815900 39.081100 -0.000007 -0.000012 -0.176401 -0.040941 103.070000 40.985400 -0.000006 -0.000013 3.424140 0.192432 -34.267000 11.754300 -0.000000 0.000003 -0.007017 -0.079821 -19.826300 -2.192510 6.469440 -0.000001 -163.154000 10.256200 141.239000 -39.081100 -0.002282 -0.040193 -0.600259 0.327208 61.533200 -40.985400 0.000008 0.000006 -0.011157 -9.722240 -84.786000 -11.754300 -0.000006 -0.000006 -0.004676 -0.058295 -18.944800
0.000000 0.000000 0.000000 0.000000 0.000000 -0.000000 -1.012730 79.925400 401.731000 -81.098300 1.441790 170.119000 15.735700 0.000005 -0.000001 90.791000 77.872700 -85.524700 8.984550 -0.406207 -0.000000 16.475000 0.729628 10.440800 16.377300 -0.000001 -0.000001 3.121870 1.155090 -1.130680 6.456720 -0.000001 -0.000000 -5.112630 3.416770 -6.426290 12.994200 -0.242716 4.980390 -88.028200 -4.760410 -67.469700 5.348090 -0.000007 -0.000001 -70.146900 32.707900 3.517620 24.328600 0.000019 0.000005 3.225210 3.165910 -45.647700 22.291600 -0.000001 0.000005 -2.787680 5.671200 -17.516900 12.994500 -0.242716 -4.980390 88.351200 3.875100 -66.933200 -5.348130 -0.000001 -0.000004 -40.065100 20.946000 -31.249200 -24.328900 0.000322 -0.000009 -9.039080 -4.574880 -63.359600 -22.291500 -0.000108 -0.000004 6.931790 5.659630 -16.019600 -2.192480 -6.469440 -0.000000 -173.149000 -6.072390 -33.262800 39.081100 -0.000007 -0.000012 -0.541693 -0.276506 117.042000 40.985400 -0.000006 -0.000013 8.492290 -2.482280 -35.700800 11.754300 -0.000000 0.000003 -0.006692 -0.077008 -19.711500 -2.192510 6.469440 -0.000001 -165.999000 12.155600 146.497000 -39.081100 -0.002282 -0.040193 -0.305457 0.153002 63.630800 -40.985400 0.000008 0.000006 1.028070 -6.643230 -90.901400 -11.754300 -0.000006 -0.000006 -0.003095 -0.041675 -18.268000
0.000000 0.000000 0.000000 0.000000 0.000000 -0.000000 -1.484460 80.124400 394.360000 -83.057800 5.722300 169.520000 15.735700 0.000005 -0.000001 99.630300 78.305900 -95.822400 8.984550 -0.406207 -0.000000 15.193100 4.106100 7.075930 16.377300 -0.000001 -0.000001 3.243040 0.796611 -0.331360 6.456720 -0.000001 -0.000000 -4.150270 0.710755 -6.130760 12.994200 -0.242716 4.980390 -87.947300 -4.599890 -65.917900 5.348090 -0.000007 -0.000001 -68.652100 32.425100 11.178700 24.328600 0.000019 0.000005 5.612440 5.762010 -44.387900 22.291600 -0.000001 0.000005 -4.987000 5.665530 -16.740800 12.994500 -0.242716 -4.980390 89.323700 1.688110 -68.171600 -5.348130 -0.000001 -0.000004 -33.263800 18.983200 -41.400100 -24.328900 0.000322 -0.000009 -9.340340 -3.679910 -68.683300 -22.291500 -0.000108 -0.000004 6.970100 5.654450 -15.460700 -2.192480 -6.469440 -0.000000 -179.046000 -7.847950 -46.015900 39.081100 -0.000007 -0.000012 -0.720373 -0.436620 121.220000 40.985400 -0.000006 -0.000013 12.848200 -6.840550 -42.150200 11.754300 -0.000000 0.000003 -0.008346 -0.090840 -20.276200 -2.192510 6.469440 -0.000001 -170.883000 13.155000 153.710000 -39.081100 -0.002282 -0.040193 0.102007 -0.055568 60.648100 -40.985400 0.000008 0.000006 2.391060 -2.249820 -94.023200 -11.754300 -0.000006 -0.000006 -0.004077 -0.052242 -18.698200
0.000000 0.000000 0.000000 0.000000 0.000000 -0.000000 -2.352150 82.134000 385.751000 -86.563500 10.767200 168.918000 15.735700 0.000005 -0.000001 107.321000 78.509700 -105.961000 8.984550 -0.406207 -0.000000 14.164000 6.836700 1.872580 16.377300 -0.000001 -0.000001 3.682450 1.086870 0.359541 6.456720 -0.000001 -0.000000 -3.539080 -2.028780 -4.868480 12.994200 -0.242716 4.980390 -87.607100 -4.814520 -63.533400 5.348090 -0.000007 -0.000001 -65.354100 30.999500 16.834900 24.328600 0.000019 0.000005 3.250260 3.210760 -45.396900 22.291600 -0.000001 0.000005 -4.462090 5.662720 -16.381600 12.994500 -0.242716 -4.980390 90.324600 -0.872775 -69.575600 -5.348130 -0.000001 -0.000004 -32.711000 15.844400 -46.545400 -24.328900 0.000322 -0.000009 -9.953980 -3.058370 -73.083800 -22.291500 -0.000108 -0.000004 7.910360 5.645960 -14.647200 -2.192480 -6.469440 -0.000000 175.365000 -7.857690 -53.487600 39.081100 -0.000007 -0.000012 -0.467085 -0.222689 115.491000 40.985400 -0.000006 -0.000013 11.291000 -6.607680 -50.825300 11.754300 -0.000000 0.000003 -0.006299 -0.073540 -19.570000 -2.192510 6.469440 -0.000001 -178.896000 12.385700 163.079000 -39.081100 -0.002282 -0.040193 0.028740 -0.020170 51.655300 -40.985400 0.000008 0.000006 1.672110 2.902820 -90.384900 -11.754300 -0.000006 -0.000006 -0.143406 -0.253640 -21.447700
